<?xml version="1.0" encoding="utf-8"?>
<!-- Generator: Adobe Illustrator 18.0.0, SVG Export Plug-In . SVG Version: 6.00 Build 0)  -->
<!DOCTYPE svg PUBLIC "-//W3C//DTD SVG 1.1//EN" "http://www.w3.org/Graphics/SVG/1.1/DTD/svg11.dtd">
<svg version="1.1" id="Layer_1" xmlns="http://www.w3.org/2000/svg" xmlns:xlink="http://www.w3.org/1999/xlink" x="0px" y="0px"
	 viewBox="0 0 49.9 27.5" enable-background="new 0 0 49.9 27.5" xml:space="preserve">
<path fill="none" stroke="#FFFFFF" stroke-width="1.06" d="M2.7,4.5c2.8-2,8.4-2,11.3,0c2.8,2,8.4,2,11.3,0c2.8-2,8.4-2,11.3,0
	s8.4,2,11.3,0"/>
<path fill="none" stroke="#FFFFFF" stroke-width="1.06" d="M2.7,14.1c2.8-2,8.4-2,11.3,0c2.8,2,8.4,2,11.3,0c2.8-2,8.4-2,11.3,0
	s8.4,2,11.3,0"/>
<path fill="none" stroke="#FFFFFF" stroke-width="1.06" d="M2.7,23.7c2.8-2,8.4-2,11.3,0c2.8,2,8.4,2,11.3,0c2.8-2,8.4-2,11.3,0
	s8.4,2,11.3,0"/>
</svg>
