<?xml version="1.0" encoding="utf-8"?>
<!-- Generator: Adobe Illustrator 18.0.0, SVG Export Plug-In . SVG Version: 6.00 Build 0)  -->
<!DOCTYPE svg PUBLIC "-//W3C//DTD SVG 1.1//EN" "http://www.w3.org/Graphics/SVG/1.1/DTD/svg11.dtd">
<svg version="1.1" id="Layer_1" xmlns="http://www.w3.org/2000/svg" xmlns:xlink="http://www.w3.org/1999/xlink" x="0px" y="0px"
	 viewBox="0 0 160.4 30.3" enable-background="new 0 0 160.4 30.3" xml:space="preserve">
<path fill="none" stroke="#ADDAED" stroke-width="1.101" stroke-miterlimit="10" d="M0,22.5c16,0,16,7.3,32.1,7.3
	c16,0,16-7.3,32.1-7.3c16,0,16,7.3,32.1,7.3c16,0,16-7.3,32.1-7.3c16,0,16,7.3,32.1,7.3"/>
<path fill="none" stroke="#006F9C" stroke-width="1.101" stroke-miterlimit="10" d="M0,11.5c16,0,16,7.3,32.1,7.3
	c16,0,16-7.3,32.1-7.3c16,0,16,7.3,32.1,7.3c16,0,16-7.3,32.1-7.3c16,0,16,7.3,32.1,7.3"/>
<path fill="none" stroke="#032440" stroke-width="1.101" stroke-miterlimit="10" d="M0,0.6c16,0,16,7.3,32.1,7.3
	c16,0,16-7.3,32.1-7.3c16,0,16,7.3,32.1,7.3c16,0,16-7.3,32.1-7.3c16,0,16,7.3,32.1,7.3"/>
</svg>
