<?xml version="1.0" encoding="utf-8"?>
<!-- Generator: Adobe Illustrator 18.0.0, SVG Export Plug-In . SVG Version: 6.00 Build 0)  -->
<!DOCTYPE svg PUBLIC "-//W3C//DTD SVG 1.1//EN" "http://www.w3.org/Graphics/SVG/1.1/DTD/svg11.dtd">
<svg version="1.1" id="Layer_1" xmlns="http://www.w3.org/2000/svg" xmlns:xlink="http://www.w3.org/1999/xlink" x="0px" y="0px"
	 viewBox="0 0 209.3 72.5" enable-background="new 0 0 209.3 72.5" xml:space="preserve">
<g>
	<path fill="#FFFFFF" d="M208.7,71.9H0.5V0.5h208.2V71.9z M0,72.5h209.3V0H0V72.5z"/>
	<path fill="#FFFFFF" d="M38.9,43.2c2.9-0.2,5.3-1.7,6.3-6.5c0.4-1.9,0.6-2.8,0.6-5.7C46,22.8,46,16.7,46,10.3c0-0.8-0.3-1-0.8-1
		c-0.6,0-0.9,0.2-0.9,1c0,6.4,0.2,9.3,0.1,17.5c0,2.2-0.2,6.7-0.5,8c-0.8,3.7-2.7,5.6-4.9,5.7c-2.3,0.2-4-0.9-4.8-4.5
		c-0.3-1.4-0.6-3.3-0.6-5.6c0-8.5,0-14.8,0-21.2c0-0.8-0.3-1-0.9-1c-0.6,0-0.9,0.2-0.9,1v21.2c0,3,0.2,4,0.6,5.9
		C33.5,42.4,35.9,43.5,38.9,43.2"/>
	<path fill="#FFFFFF" d="M55.2,12.9c1.6,7.4,2.4,12,3.7,18.4c-2.9,0-4.8,0.1-7.7,0.2C52.8,24.9,53.8,20.2,55.2,12.9 M47.7,42.3
		c0.6,0,0.9-0.3,1.1-1c0.7-2.7,1-5.3,1.7-7.9c3.4-0.1,5.5-0.2,8.9-0.2c0.8,2.5,1,4.8,1.8,7.3c0.2,0.6,0.4,0.9,1.1,0.8
		c0.6,0,0.8-0.3,0.8-0.7c0-0.3-0.1-0.6-0.2-0.9c-2.6-10.1-4.3-18.7-6.5-29.1c-0.3-1.1-0.6-1.3-1.2-1.3c-0.7,0-1,0.2-1.3,1.3
		c-2.3,10-4.2,20.2-6.8,30.2c-0.1,0.3-0.2,0.7-0.2,1C47,42.1,47.2,42.3,47.7,42.3"/>
	<path fill="#FFFFFF" d="M64.7,40.1c0,0.7,0.3,0.9,0.9,0.9c0.6,0,0.8-0.3,0.8-1c-0.1-4.7-0.2-6-0.1-14.5c3.7,7.1,4.9,9.4,8.2,13.8
		c0.5,0.8,0.8,0.8,1.3,0.8c0.7-0.1,0.9-0.3,0.9-0.6c0-0.3-0.6-0.9-0.9-1.4c-3.3-4.7-4.1-6.1-7.6-13.3C71.9,18,73,16,76.4,11
		c0.3-0.4,0.5-0.7,0.5-1c0-0.4,0-0.7-0.6-0.7c-0.6,0-0.8,0.4-1.3,1c-3,4.9-4.2,6.7-8.6,14.1c0.3-7.3,0.1-9.3,0.1-14.1
		c0-0.8-0.3-1-0.9-1c-0.6,0-0.9,0.2-0.9,1C64.8,21,64.4,30.1,64.7,40.1"/>
	<path fill="#FFFFFF" d="M79.3,39.5c3.6-0.3,5.6-0.4,9.2-0.6c0.5,0,1.2-0.5,0.8-1.1c-0.3-0.4-0.3-0.4-0.8-0.4
		c-3.3,0.2-5.1,0.2-8.4,0.5c0-4.5,0-6.5,0.2-12.8c2.7-0.1,4.2-0.2,6.9-0.3c0.5,0,0.8,0.1,0.7-1c0-0.4-0.4-0.6-0.9-0.6
		c-2.8,0-4,0-6.7,0.1c0.2-5.2,0.2-7.7,0.3-12.2c3.2,0,4.1,0.1,7.3,0.1c0.5,0,1.5-0.1,1.5-0.8c0-0.8-0.2-1-0.8-1c-3.5,0-5.3,0-8.8,0
		c-0.7,0-1,0.3-1,1.3c-0.3,9.2-0.8,18.4-0.6,27.6C78.4,39.3,78.7,39.6,79.3,39.5"/>
	<path fill="#FFFFFF" d="M93.3,11.2C94,11,95.1,11,95.8,11c3.3,0,5.5,3.8,5.5,7.5c0,3.5-2.3,7.9-6.5,8c-0.5,0-1.2,0-1.7-0.1
		C93.2,19.5,93.1,16.7,93.3,11.2 M92,38.8c0.6-0.1,0.9-0.3,0.9-1c0-3.4-0.1-5.5,0-9.9c0.4,0.1,1.3,0.1,1.7,0.1
		c0.8-0.1,1.4,0,2.1-0.2c2.1,4.1,3.2,5.9,5,9.1c0.4,0.7,0.6,1,1.4,0.8c0.4-0.1,0.5-0.2,0.5-0.6c0-0.3-0.1-0.5-0.5-1.2
		c-1.8-3.3-2.8-4.3-4.7-8.6c2.7-1.8,4.4-5.9,4.4-9.2c0-4.9-2.8-8.7-7.2-8.7c-1,0-2.2,0.1-2.9,0.3c-1,0.3-1,0.8-1.1,2
		c-0.4,8.8-0.6,17.4-0.5,26.4C91.2,38.6,91.5,38.8,92,38.8"/>
	<path fill="#FFFFFF" d="M110.9,36.8c0.6-0.1,0.6-0.3,0.7-0.9c0.4-8.1,0.8-14,1.4-23.9c2.4,7.9,3.7,13.1,6.1,19.3
		c0.3,0.7,0.6,1,1.1,1c0.5,0,0.8-0.4,1.1-1.1c2.4-6.2,3.8-12.5,6.3-19.4c0.3,8.5,0.3,15.8,0.7,22.5c0,0.5,0.3,0.8,0.9,0.7
		c0.6-0.1,0.9-0.3,0.8-0.9c-0.4-7.1-0.6-15.3-1-23.6c0-0.9-0.3-1.3-1.1-1.3c-0.8,0-1.2,0.4-1.5,1.3c-2.3,6.8-3.9,12.9-6.1,19.2
		c-2.1-6.1-3.8-12.2-6-19.1c-0.3-1.1-0.8-1.4-1.5-1.4c-0.8,0-1.1,0.4-1.2,1.4c-0.5,9.4-1,16.7-1.5,25.2
		C110,36.6,110.3,36.8,110.9,36.8"/>
	<path fill="#FFFFFF" d="M139.5,11.4c1.3,4.4,2.9,9.9,4.5,15.7c-3,0.1-5.9,0.1-8.9,0.1C136.7,20.9,137.8,15.8,139.5,11.4
		 M131.9,34.9c0.6-0.1,0.9-0.3,1.1-0.8c0.7-2,1.1-3.5,1.8-5.5c3.3,0,6.3,0,9.7,0c0.6,2,0.6,2.4,1.2,4.3c0.2,0.5,0.3,0.7,0.7,0.8
		c0.6,0.1,0.8-0.3,0.8-0.6c0-0.2-0.1-0.5-0.2-0.6c-1.6-5.6-4-14.5-6.2-22c-0.2-0.8-0.6-1-1.2-1c-0.7,0-1,0.3-1.3,1
		c-2.8,7.4-4.3,16.1-7,23.4c-0.1,0.2-0.2,0.5-0.2,0.7C131.1,34.8,131.3,35,131.9,34.9"/>
	<path fill="#FFFFFF" d="M150.8,10.9c0.7-0.1,1.4-0.2,2.1-0.2c3.3,0,5.3,1.6,5.2,4.8c0,3-1.7,8.5-5.7,8.7c-0.5,0-1.5,0-2-0.1
		C150.6,17.4,150.7,14.7,150.8,10.9 M149.7,33.3c0.6,0,0.8-0.3,0.8-0.8c-0.1-2.6-0.1-2.6-0.1-6.8c0.4,0.1,1.3,0,1.6,0
		c0.8-0.1,1.8-0.3,2.4-0.5c2.6,3.5,2.6,4,4.5,6.5c0.4,0.5,0.6,0.8,1.4,0.7c0.6,0,0.7-0.2,0.7-0.6c0-0.2,0-0.4-0.4-0.9
		c-1.9-2.3-2.3-2.7-4.7-6.4c2.7-1.7,3.9-6.1,3.9-9c0-4.1-2.4-6.3-6.8-6.3c-1,0-2.2,0.1-2.9,0.3c-1,0.3-1,0.7-1,1.5
		c-0.2,7.3-0.4,15-0.2,21.5C148.9,33.1,149.2,33.3,149.7,33.3"/>
	<path fill="#FFFFFF" d="M163.6,32.1c0.6,0,0.9-0.3,0.9-0.9c-0.1-6.9,0.2-13.6,0.3-21.1c0-0.6-0.3-0.8-0.9-0.8
		c-0.6,0-0.9,0.3-0.9,0.8c-0.1,7.5-0.4,14.4-0.3,21.3C162.7,31.9,163,32.2,163.6,32.1"/>
	<path fill="#FFFFFF" d="M168.5,31.7c0.6,0,0.8-0.3,0.8-0.9c-0.1-6.3,0.1-11.8,0.2-18.9c4,6.9,5.9,11.6,10.2,17.4
		c0.4,0.6,0.8,1,1.6,0.9c0.7-0.1,1.1-0.5,1-1.2c-0.1-7,0.1-11.7,0.2-19c0-0.6-0.3-0.8-0.8-0.8c-0.6,0-0.9,0.3-0.9,0.8
		c0,6.7-0.3,11.4-0.2,17.6c-4.3-5.6-6-10.7-10-17.4c-0.4-0.7-0.8-1-1.6-1c-0.8,0-1.1,0.3-1.1,1.1c-0.1,7.5-0.4,13.8-0.3,20.6
		C167.6,31.5,167.9,31.8,168.5,31.7"/>
	<path fill="#FFFFFF" d="M186.6,29.7c3.7-0.2,5.5-0.2,9.2-0.5c0.5,0,0.8-0.3,0.8-0.9c0-0.5-0.3-0.8-0.8-0.8c-3.4,0.3-5,0.4-8.4,0.5
		c0-3-0.1-4.5,0-8c2.8-0.1,4.2,0,7-0.1c0.5,0,0.8-0.3,0.8-0.8c0-0.5-0.2-0.8-0.8-0.8c-2.8,0-4.2,0-7,0c0-3.1,0-4.2,0-7.1
		c3.2,0,4.8,0,8,0c0.5,0,0.8-0.3,0.8-0.8c0-0.5-0.3-0.8-0.8-0.8c-3.5,0-5.3,0-8.8,0c-0.7,0-1,0.3-1,1c0,7.2-0.2,11.3-0.1,18.3
		C185.6,29.4,185.9,29.7,186.6,29.7"/>
	<path fill="#FFFFFF" d="M34.8,49.7c0-1.6,1.1-2.9,3.7-3.1c1.3-0.1,1.8,0.4,2.8,0.9c0.3,0.2,0.6,0.5,0.8,0.5c0.4,0,0.7-0.2,0.7-0.6
		c0-0.4-0.1-0.7-0.9-1.3c-1.1-0.6-1.8-1-3.3-1c-3.3,0.1-5.3,2.1-5.3,4.6c0,5.2,8.9,4.1,8.9,8.4c0,1.9-2,3.2-4.2,3.2
		c-1.4,0-2.4-0.4-3.2-1.2c-0.4-0.5-0.7-1-1-1c-0.4,0-0.6,0.2-0.6,0.6c0,0.3,0.3,1,0.8,1.4c1.1,0.8,2.2,1.4,3.9,1.4
		c3.2,0,5.7-1.5,5.7-4.5C43.4,52.7,34.7,53.7,34.8,49.7"/>
	<path fill="#FFFFFF" d="M47.2,59.5c0.9,2.3,3,3.4,5.8,3.4c2.6,0,4.8-1,5.8-3.7c0.4-1.1,0.6-2.2,0.6-3.8c0.1-4.5,0-7,0.1-11.1
		c0-0.5-0.2-0.7-0.7-0.7c-0.5,0.1-0.8,0.3-0.8,0.8c-0.1,4.1,0.1,6.8,0,11.3c-0.1,1.3-0.3,1.9-0.6,2.7c-0.8,2.2-2.4,3.1-4.4,3.1
		c-2.1,0-3.6-0.8-4.3-2.7c-0.3-0.7-0.4-1.6-0.4-2.7c-0.1-4.3,0-6.8,0.2-10.9c0-0.3-0.1-0.7-0.6-0.7c-0.5,0-0.8,0.3-0.8,0.8
		c-0.2,4.1-0.4,6.5-0.3,10.8C46.6,57.6,46.8,58.6,47.2,59.5"/>
	<path fill="#FFFFFF" d="M65,44.9c0.7-0.1,1.4-0.2,1.9-0.3c2.9-0.2,5,1.2,5,4.4c0,2.9-1.9,5.7-4.9,5.8c-0.6,0-1.3,0-2-0.2
		C64.9,50.5,64.9,48.6,65,44.9 M64.1,62.7c0.5,0,0.8-0.2,0.8-0.7c0-2.2,0.2-3.8,0.2-5.8c0.7,0.1,1.4,0.2,2.1,0.2
		c3.8-0.1,6.5-3.6,6.5-7.5c0-4-2.8-6-6.6-5.7c-0.9,0.1-2,0.2-2.6,0.3c-0.9,0.2-0.9,0.7-0.9,1.3c-0.2,6.6,0,10.6-0.1,17.2
		C63.3,62.5,63.6,62.7,64.1,62.7"/>
	<path fill="#FFFFFF" d="M77.9,43.8c0.7-0.1,1.4-0.2,1.9-0.2c2.9,0,5.1,1.7,5.1,4.8c0,2.9-2,5.9-5.1,5.9c-0.6,0-1.3-0.1-2-0.2
		C78,49.7,78,47.7,77.9,43.8 M76.3,43.8c0.1,6.9-0.1,11.2,0,18.2c0,0.5,0.3,0.8,0.8,0.8c0.5,0,0.8-0.2,0.8-0.8
		c0-2.4-0.1-4.1-0.1-6.2c0.7,0.1,1.4,0.2,2.1,0.2c3.9,0,6.6-3.8,6.7-7.6c0-4-2.8-6.3-6.7-6.2c-0.9,0-2,0.1-2.6,0.3
		C76.3,42.6,76.3,43.2,76.3,43.8"/>
	<path fill="#FFFFFF" d="M89.2,42.1c0,7.1,0.2,12.2,0.2,19.5c0,0.7,0.3,1,0.8,1c2.9,0,4.3,0,7.2,0c0.5,0,0.7-0.2,0.7-0.8
		c0-0.5-0.2-0.8-0.7-0.8c-2.6,0-3.9,0-6.5,0c0.1-7.4-0.2-12.1-0.2-19c0-0.5-0.3-0.7-0.8-0.7C89.5,41.3,89.2,41.6,89.2,42.1"/>
	<path fill="#FFFFFF" d="M98.1,41.6c-0.2-0.5-0.5-0.7-1.1-0.6c-0.5,0-0.8,0.2-0.8,0.5c0,0.3,0.2,0.6,0.4,1.1
		c2.3,5.1,3.9,9.2,6.1,13.8c0,2.2,0,3.4-0.1,5.6c0,0.5,0.3,0.7,0.8,0.7c0.5,0,0.8-0.2,0.8-0.7c0-2.1,0-3.2,0-5.5
		c1.7-4.3,3.5-9.4,5.8-15c0.2-0.5,0.4-0.9,0.4-1.2c0-0.3-0.4-0.5-0.7-0.5c-0.5,0-0.8,0.2-1,0.8c-2.1,4.9-3.2,8.1-5.3,13.6
		C100.9,48.1,100.1,45.8,98.1,41.6"/>
	<path fill="#FFFFFF" d="M157.2,35.9c-0.8,0.1-0.9,0.3-1.3,0.6c-1.3,1.5-2.2,2.2-3.9,4c-0.4,0.5-0.8,0.9-0.7,1.8
		c0.1,0.5,0.3,0.7,0.6,0.7c0.3,0,0.5-0.2,0.7-0.4c1.4-1.6,2.2-2.4,3.7-4c0,10.1,0,10.8-0.1,19.9c0,1,0.3,1.5,0.9,1.5
		c0.6,0,0.9-0.5,0.9-1.5c0.1-9.9,0-12.9,0-21.4C158,36.4,158,35.8,157.2,35.9"/>
	<path fill="#FFFFFF" d="M166,37c1.1-0.1,2.2,0,3.1,2.9c0.6,2,0.8,4,0.7,6.4c0,0.4-0.1,0.9-0.1,1.3c-1.1,2-2.5,4-3.9,4
		c-2.4,0.1-3.7-3.7-3.7-6.5C162.1,42.3,163.8,37.3,166,37 M160.5,45.3c0,3.7,2,8.1,5.1,8c1.6,0,2.9-0.8,4-2.9
		c-0.8,6.3-2.9,9-6.9,10.9c-0.6,0.3-1,0.4-1,1.2c0,0.5,0.1,0.6,0.7,0.6c0.6,0,2.6-0.7,4.3-2.5c3.4-3.4,4.8-8.6,4.8-14.5
		c0-3-0.4-6.4-1.4-8.8c-0.9-2.1-2.3-2.4-4.1-2.2C162.6,35.5,160.5,41.4,160.5,45.3"/>
	<path fill="#FFFFFF" d="M180.6,54.7c-2.5,0-3.9,0.1-6.5,0c1.6-3.8,3.8-9.9,6.7-17.5C180.7,45.2,180.6,51.6,180.6,54.7 M182.5,34.6
		c0-0.8-0.3-1-0.9-0.9c-0.7,0.1-1.1,0.3-1.5,1.3c-2.9,7-5.1,13.6-7.2,18.9c-0.3,0.5-0.5,0.7-0.5,1.3c0,0.9,0.5,1.3,0.9,1.3
		c3,0.1,4.5,0.1,7.4,0.1c0,2.2,0.1,3.9,0.1,5.8c0,0.8,0.3,1,0.9,1c0.5,0,0.8-0.2,0.8-1c0-1.9-0.1-3.6-0.1-5.8c0.9,0,1.4,0,2.3,0
		c0.5,0,0.8-0.5,0.7-1.2c0-0.2-0.2-0.5-0.7-0.5c-0.9,0-1.5,0-2.4,0C182.2,50.9,182.3,41.2,182.5,34.6"/>
	<path fill="#FFFFFF" d="M195.6,46.4c-1.1,2.7-2.7,4.3-4.3,4.3c-2.8,0-4.1-3.4-4-8.1c0.1-2.8,2.2-7.8,4.5-8.1c1.2-0.1,2.2,0.6,3,2.6
		c0.7,1.9,0.9,3.5,0.9,6.7C195.7,44.4,195.6,45.7,195.6,46.4 M191.5,32.8c-3.4,0.4-5.8,6.9-5.8,10.7c-0.1,3.7,1.9,8.6,5,8.7
		c1.8,0,3.5-0.4,4.7-2.8c-1.7,8.7-3.5,10.1-7.5,12.1c-0.6,0.3-1.1,0.2-1.1,1c0,0.5,0.2,0.7,0.8,0.7c0.6,0,2.2,0,4.2-1.7
		c3.8-3.3,5.7-10.2,5.7-17.7c0-3.9-0.5-6.7-1.6-8.9C194.8,32.7,193.3,32.6,191.5,32.8"/>
	<path fill="#FFFFFF" d="M125.3,49.2h-5.5V45h4.6c0.5,0,0.6-0.3,0.6-0.5c0-0.2-0.1-0.5-0.6-0.5h-4.6v-3.7h5.3c0.4,0,0.6-0.2,0.6-0.5
		c0-0.2-0.1-0.5-0.6-0.5h-5.9c-0.5,0-0.7,0.2-0.7,0.6v9.8c0,0.4,0.2,0.6,0.7,0.6h6.1c0.4,0,0.6-0.2,0.6-0.5
		C125.9,49.4,125.8,49.2,125.3,49.2"/>
	<path fill="#FFFFFF" d="M126.9,41.8c0,1.8,1.8,2.5,3.5,3.1c1.5,0.6,3,1.1,3,2.4c0,1.2-1.2,2-2.9,2c-0.9,0-1.7-0.2-2.5-0.7
		c-0.1-0.1-0.2-0.1-0.3-0.2c-0.2-0.1-0.3-0.2-0.5-0.2c-0.3,0-0.6,0.3-0.6,0.6c0,0.2,0.2,0.4,0.6,0.7c0.9,0.6,2,0.9,3.2,0.9
		c2.5,0,4.3-1.2,4.3-3.1c0-2-2-2.7-3.7-3.3c-1.4-0.5-2.8-1-2.8-2.2c0-1.1,1-1.7,2.6-1.7c0.8,0,1.5,0.2,2.3,0.6
		c0.1,0,0.1,0.1,0.2,0.1c0.2,0.1,0.4,0.2,0.5,0.2c0.3,0,0.6-0.3,0.6-0.6c0-0.2-0.2-0.4-0.6-0.7c-0.9-0.5-1.8-0.7-2.9-0.7
		C128.4,39,126.9,40.1,126.9,41.8"/>
	<path fill="#FFFFFF" d="M145.1,39.7c0-0.2-0.1-0.5-0.6-0.5h-8.8c-0.5,0-0.6,0.3-0.6,0.5c0,0.3,0.2,0.5,0.6,0.5h3.7v9.5
		c0,0.3,0.2,0.5,0.7,0.5c0.4,0,0.7-0.2,0.7-0.5v-9.5h3.7C144.9,40.2,145.1,40,145.1,39.7"/>
	<path fill="#FFFFFF" d="M144.6,48.8c-0.5,0-0.9,0.3-0.9,0.8s0.4,0.8,0.9,0.8c0.5,0,0.9-0.3,0.9-0.8S145.2,48.8,144.6,48.8"/>
	<path fill="#FFFFFF" d="M13.1,16.6c0.3-3.9,2.7-6.4,6.3-6.4c3.6,0,6,2.5,6.3,6.5c0,0.3,0,37.7,0,38c0,3.4-1.5,5.9-3.9,6.8
		c-0.8-0.9-1.5-1.7-1.7-1.9c-0.5-0.4-1-0.2-1.1-0.1c-0.2,0.2-0.2,0.7-0.1,0.9c0,0.1,0.6,0.7,1.3,1.5c-0.2,0-0.5,0-0.8,0
		c-3.8,0-6.3-2.9-6.3-7.3C13.1,54.2,13.1,16.8,13.1,16.6 M19.4,63.2c0.7,0,1.3-0.1,1.9-0.2c0.3,0.4,0.7,0.7,0.9,1h0l1.3,1.4
		c0.3,0.4,0.6,0.6,1.3,0.6c0.6,0,0.8-0.1,0.8-0.4c0-0.2-0.2-0.5-0.5-0.8l-1.9-2c-0.1-0.1-0.2-0.3-0.4-0.4c2.8-1.3,4.5-4.1,4.5-8
		c0-0.3,0-37.7,0-38c-0.3-4.8-3.4-7.8-7.9-7.8c-4.5,0-7.6,3.1-7.9,7.8c0,0.3,0,37.7,0,38C11.4,59.7,14.6,63.2,19.4,63.2"/>
</g>
</svg>
