<?xml version="1.0" encoding="utf-8"?>
<!-- Generator: Adobe Illustrator 18.0.0, SVG Export Plug-In . SVG Version: 6.00 Build 0)  -->
<!DOCTYPE svg PUBLIC "-//W3C//DTD SVG 1.1//EN" "http://www.w3.org/Graphics/SVG/1.1/DTD/svg11.dtd">
<svg version="1.1" id="Layer_1" xmlns="http://www.w3.org/2000/svg" xmlns:xlink="http://www.w3.org/1999/xlink" x="0px" y="0px"
	 viewBox="0 0 1920 308.2" enable-background="new 0 0 1920 308.2" xml:space="preserve">
<g>
	<g>
		<defs>
			<rect id="SVGID_1_" width="1920" height="308.2"/>
		</defs>
		<clipPath id="SVGID_2_">
			<use xlink:href="#SVGID_1_"  overflow="visible"/>
		</clipPath>
		<g clip-path="url(#SVGID_2_)">
			<defs>
				<path id="SVGID_3_" d="M0,0v828.7c0,0,176,163.8,501.3-2.5c222.7-99.4,401,25,474.2,50.9c87.6,31.1,235.2,57.4,462.8-49.8
					c217.7-105,362.1-25.4,481.7,47.2V0H0z"/>
			</defs>
			<clipPath id="SVGID_4_">
				<use xlink:href="#SVGID_3_"  overflow="visible"/>
			</clipPath>
			
				<rect x="-313.6" y="-755.1" transform="matrix(0.8746 -0.4848 0.4848 0.8746 -54.9118 498.0746)" clip-path="url(#SVGID_4_)" fill="#AEDBEE" width="2498.2" height="2220.6"/>
		</g>
		<g clip-path="url(#SVGID_2_)">
			<defs>
				<path id="SVGID_5_" d="M0,0v828.6c0,0,176,163.8,501.3-2.5c222.7-99.4,401,25,474.2,50.9c87.6,31.1,235.2,57.4,462.8-49.8
					c217.7-105,362.1-25.4,481.7,47.2V0H0z"/>
			</defs>
			<clipPath id="SVGID_6_">
				<use xlink:href="#SVGID_5_"  overflow="visible"/>
			</clipPath>
			<path clip-path="url(#SVGID_6_)" fill="#032440" d="M1185.6,228.4c-1010.2,303.1-1393-467.8-1393-467.8L-763.9,65.9L255.3,1923.7
				L2665.1,601.6C2665.1,601.6,2195.8-74.7,1185.6,228.4z M113,352.2c-6.4,0-6.4-10,0-10S119.4,352.2,113,352.2z"/>
			<path clip-path="url(#SVGID_6_)" fill="none" stroke="#010101" stroke-width="0.979" stroke-miterlimit="10" d="M1185.6,228.4
				c-1010.2,303.1-1393-467.8-1393-467.8L-763.9,65.9L255.3,1923.7L2665.1,601.6C2665.1,601.6,2195.8-74.7,1185.6,228.4z M113,352.2
				c-6.4,0-6.4-10,0-10S119.4,352.2,113,352.2z"/>
		</g>
	</g>
</g>
</svg>
